<mxfile host="app.diagrams.net" agent="Mozilla/5.0 (Macintosh; Intel Mac OS X 10_15_7) AppleWebKit/537.36 (KHTML, like Gecko) Chrome/139.0.0.0 Safari/537.36" version="28.1.2">
  <diagram name="第 1 页" id="OmcVg9UZ7INLSgDjdsWT">
    <mxGraphModel dx="1426" dy="824" grid="1" gridSize="10" guides="1" tooltips="1" connect="1" arrows="1" fold="1" page="1" pageScale="1" pageWidth="827" pageHeight="1169" math="0" shadow="0">
      <root>
        <mxCell id="0" />
        <mxCell id="1" parent="0" />
        <mxCell id="8VVyXH77qokNSkwGSQ5K-1" value="" style="group" vertex="1" connectable="0" parent="1">
          <mxGeometry x="470" y="490" width="1970" height="1310" as="geometry" />
        </mxCell>
        <mxCell id="8VVyXH77qokNSkwGSQ5K-2" value="live.live.dao-anchor" style="rounded=1;whiteSpace=wrap;html=1;" vertex="1" parent="8VVyXH77qokNSkwGSQ5K-1">
          <mxGeometry x="890" width="120" height="60" as="geometry" />
        </mxCell>
        <mxCell id="8VVyXH77qokNSkwGSQ5K-3" value="&lt;span style=&quot;font-family: ui-sans-serif, system-ui, sans-serif, &amp;quot;Apple Color Emoji&amp;quot;, &amp;quot;Segoe UI Emoji&amp;quot;, &amp;quot;Segoe UI Symbol&amp;quot;, &amp;quot;Noto Color Emoji&amp;quot;; font-size: 14px; font-style: normal; font-variant-ligatures: normal; font-variant-caps: normal; font-weight: 400; letter-spacing: normal; orphans: 2; text-align: left; text-indent: 0px; text-transform: none; widows: 2; word-spacing: 0px; -webkit-text-stroke-width: 0px; white-space: normal; text-decoration-thickness: initial; text-decoration-style: initial; text-decoration-color: initial; float: none; display: inline !important;&quot;&gt;&lt;font style=&quot;color: light-dark(rgb(0, 0, 0), rgb(255, 255, 255));&quot;&gt;/live.daoanchor.v1.DaoAnchor/FetchRoomByIDs&lt;/font&gt;&lt;/span&gt;" style="text;whiteSpace=wrap;html=1;" vertex="1" parent="8VVyXH77qokNSkwGSQ5K-1">
          <mxGeometry x="520" width="340" height="40" as="geometry" />
        </mxCell>
        <mxCell id="8VVyXH77qokNSkwGSQ5K-4" value="" style="group" vertex="1" connectable="0" parent="8VVyXH77qokNSkwGSQ5K-1">
          <mxGeometry y="30" width="1970" height="1280" as="geometry" />
        </mxCell>
        <mxCell id="8VVyXH77qokNSkwGSQ5K-5" value="" style="rounded=0;whiteSpace=wrap;html=1;dashed=1;dashPattern=8 8;strokeColor=#000000;" vertex="1" parent="8VVyXH77qokNSkwGSQ5K-4">
          <mxGeometry x="1250" y="675" width="690" height="605" as="geometry" />
        </mxCell>
        <mxCell id="8VVyXH77qokNSkwGSQ5K-6" value="" style="rounded=0;whiteSpace=wrap;html=1;dashed=1;dashPattern=8 8;" vertex="1" parent="8VVyXH77qokNSkwGSQ5K-4">
          <mxGeometry x="180" y="690" width="820" height="590" as="geometry" />
        </mxCell>
        <mxCell id="8VVyXH77qokNSkwGSQ5K-7" value="" style="rounded=0;whiteSpace=wrap;html=1;dashed=1;dashPattern=8 8;" vertex="1" parent="8VVyXH77qokNSkwGSQ5K-4">
          <mxGeometry x="530" y="240" width="1090" height="330" as="geometry" />
        </mxCell>
        <mxCell id="8VVyXH77qokNSkwGSQ5K-8" style="edgeStyle=orthogonalEdgeStyle;rounded=0;orthogonalLoop=1;jettySize=auto;html=1;entryX=0.5;entryY=0;entryDx=0;entryDy=0;" edge="1" parent="8VVyXH77qokNSkwGSQ5K-4" source="8VVyXH77qokNSkwGSQ5K-10" target="8VVyXH77qokNSkwGSQ5K-14">
          <mxGeometry relative="1" as="geometry">
            <Array as="points">
              <mxPoint x="440" y="300" />
              <mxPoint x="440" y="160" />
              <mxPoint x="940" y="160" />
            </Array>
          </mxGeometry>
        </mxCell>
        <mxCell id="8VVyXH77qokNSkwGSQ5K-9" style="edgeStyle=orthogonalEdgeStyle;rounded=0;orthogonalLoop=1;jettySize=auto;html=1;entryX=0.5;entryY=0;entryDx=0;entryDy=0;" edge="1" parent="8VVyXH77qokNSkwGSQ5K-4" source="8VVyXH77qokNSkwGSQ5K-10" target="8VVyXH77qokNSkwGSQ5K-22">
          <mxGeometry relative="1" as="geometry">
            <Array as="points">
              <mxPoint x="440" y="300" />
              <mxPoint x="440" y="640" />
              <mxPoint x="740" y="640" />
            </Array>
          </mxGeometry>
        </mxCell>
        <mxCell id="8VVyXH77qokNSkwGSQ5K-10" value="live.live.xroom" style="rounded=1;whiteSpace=wrap;html=1;" vertex="1" parent="8VVyXH77qokNSkwGSQ5K-4">
          <mxGeometry x="250" y="270" width="120" height="60" as="geometry" />
        </mxCell>
        <mxCell id="8VVyXH77qokNSkwGSQ5K-11" style="edgeStyle=orthogonalEdgeStyle;rounded=0;orthogonalLoop=1;jettySize=auto;html=1;exitX=0.5;exitY=1;exitDx=0;exitDy=0;entryX=0.5;entryY=0;entryDx=0;entryDy=0;" edge="1" parent="8VVyXH77qokNSkwGSQ5K-4" source="8VVyXH77qokNSkwGSQ5K-14" target="8VVyXH77qokNSkwGSQ5K-15">
          <mxGeometry relative="1" as="geometry">
            <Array as="points">
              <mxPoint x="960" y="330" />
              <mxPoint x="960" y="390" />
              <mxPoint x="755" y="390" />
            </Array>
          </mxGeometry>
        </mxCell>
        <mxCell id="8VVyXH77qokNSkwGSQ5K-12" style="edgeStyle=orthogonalEdgeStyle;rounded=0;orthogonalLoop=1;jettySize=auto;html=1;" edge="1" parent="8VVyXH77qokNSkwGSQ5K-4" source="8VVyXH77qokNSkwGSQ5K-14" target="8VVyXH77qokNSkwGSQ5K-16">
          <mxGeometry relative="1" as="geometry">
            <Array as="points">
              <mxPoint x="960" y="390" />
              <mxPoint x="1190" y="390" />
            </Array>
          </mxGeometry>
        </mxCell>
        <mxCell id="8VVyXH77qokNSkwGSQ5K-13" style="edgeStyle=orthogonalEdgeStyle;rounded=0;orthogonalLoop=1;jettySize=auto;html=1;" edge="1" parent="8VVyXH77qokNSkwGSQ5K-4" source="8VVyXH77qokNSkwGSQ5K-14" target="8VVyXH77qokNSkwGSQ5K-20">
          <mxGeometry relative="1" as="geometry" />
        </mxCell>
        <mxCell id="8VVyXH77qokNSkwGSQ5K-14" value="&lt;span style=&quot;font-family: ui-sans-serif, system-ui, sans-serif, &amp;quot;Apple Color Emoji&amp;quot;, &amp;quot;Segoe UI Emoji&amp;quot;, &amp;quot;Segoe UI Symbol&amp;quot;, &amp;quot;Noto Color Emoji&amp;quot;; text-align: left; text-wrap-mode: nowrap;&quot;&gt;&lt;font style=&quot;color: light-dark(rgb(0, 0, 0), rgb(255, 255, 255));&quot;&gt;live.live-infra.playurl-strategy&lt;/font&gt;&lt;/span&gt;" style="rounded=1;whiteSpace=wrap;html=1;" vertex="1" parent="8VVyXH77qokNSkwGSQ5K-4">
          <mxGeometry x="840" y="270" width="200" height="60" as="geometry" />
        </mxCell>
        <mxCell id="8VVyXH77qokNSkwGSQ5K-15" value="&lt;div style=&quot;font-family: Menlo, Monaco, &amp;quot;Courier New&amp;quot;, monospace; line-height: 18px; white-space: pre;&quot;&gt;&lt;span&gt;&lt;font style=&quot;color: light-dark(rgb(0, 0, 0), rgb(255, 255, 255));&quot;&gt;datacenter.titan.titan-user-service&lt;/font&gt;&lt;/span&gt;&lt;/div&gt;" style="rounded=1;whiteSpace=wrap;html=1;" vertex="1" parent="8VVyXH77qokNSkwGSQ5K-4">
          <mxGeometry x="570" y="450" width="370" height="60" as="geometry" />
        </mxCell>
        <mxCell id="8VVyXH77qokNSkwGSQ5K-16" value="&lt;div style=&quot;font-family: Menlo, Monaco, &amp;quot;Courier New&amp;quot;, monospace; line-height: 18px; white-space: pre;&quot;&gt;&lt;font style=&quot;color: light-dark(rgb(0, 0, 0), rgb(255, 255, 255));&quot;&gt;video.live-edge-computing.stream-media-fetch&lt;/font&gt;&lt;/div&gt;" style="rounded=1;whiteSpace=wrap;html=1;" vertex="1" parent="8VVyXH77qokNSkwGSQ5K-4">
          <mxGeometry x="1020" y="450" width="340" height="60" as="geometry" />
        </mxCell>
        <mxCell id="8VVyXH77qokNSkwGSQ5K-17" value="&lt;span&gt;&lt;span&gt;&lt;font style=&quot;color: rgb(0, 0, 0);&quot;&gt;&lt;span style=&quot;box-sizing: border-box; border: 0px solid; margin: 0px 0px 0px 5px; padding: 0px; font-family: ui-sans-serif, system-ui, sans-serif, &amp;quot;Apple Color Emoji&amp;quot;, &amp;quot;Segoe UI Emoji&amp;quot;, &amp;quot;Segoe UI Symbol&amp;quot;, &amp;quot;Noto Color Emoji&amp;quot;; font-size: 14px; text-align: left; text-wrap-mode: wrap;&quot; data-v-6d79ae31=&quot;&quot;&gt;/datacenter.service.titan.v1.TitanUserServer/CheckTagBatch&lt;/span&gt;&lt;span style=&quot;box-sizing: border-box; border: 1px solid rgb(225, 243, 216); margin: 0px 0px 0px 20px; padding: 0px 9px; align-items: center; border-radius: 4px; display: inline-flex; height: 24px; justify-content: center; vertical-align: middle; font-family: ui-sans-serif, system-ui, sans-serif, &amp;quot;Apple Color Emoji&amp;quot;, &amp;quot;Segoe UI Emoji&amp;quot;, &amp;quot;Segoe UI Symbol&amp;quot;, &amp;quot;Noto Color Emoji&amp;quot;; text-align: left; --el-tag-font-size: 12px; --el-tag-border-radius: 4px; --el-tag-border-radius-rounded: 9999px; line-height: 1; --el-icon-size: 14px; --el-tag-bg-color: light-dark(rgb(239.8,248.9,235.3), #141c10); --el-tag-border-color: light-dark(rgb(224.6,242.8,215.6), #16260f); --el-tag-hover-color: light-dark(#67c23a, #297803); --el-tag-text-color: light-dark(#67c23a, #297803);&quot; class=&quot;el-tag el-tag--success el-tag--light&quot; data-v-6d79ae31=&quot;&quot;&gt;&lt;/span&gt;&lt;/font&gt;&lt;/span&gt;&lt;/span&gt;&lt;div&gt;&lt;br&gt;&lt;/div&gt;" style="text;html=1;align=center;verticalAlign=middle;resizable=0;points=[];autosize=1;strokeColor=none;fillColor=none;" vertex="1" parent="8VVyXH77qokNSkwGSQ5K-4">
          <mxGeometry x="530" y="350" width="450" height="50" as="geometry" />
        </mxCell>
        <mxCell id="8VVyXH77qokNSkwGSQ5K-18" value="&lt;span&gt;&lt;span&gt;&lt;font style=&quot;color: rgb(0, 0, 0);&quot;&gt;&lt;span style=&quot;box-sizing: border-box; border: 0px solid; margin: 0px 0px 0px 5px; padding: 0px; font-family: ui-sans-serif, system-ui, sans-serif, &amp;quot;Apple Color Emoji&amp;quot;, &amp;quot;Segoe UI Emoji&amp;quot;, &amp;quot;Segoe UI Symbol&amp;quot;, &amp;quot;Noto Color Emoji&amp;quot;; font-size: 14px; text-align: left; text-wrap-mode: wrap;&quot; data-v-6d79ae31=&quot;&quot;&gt;/video.edge_computing.stream_media_fetch.v1.StreamMediaFetch/QueryRoomMediaCommonInfo&lt;/span&gt;&lt;span style=&quot;box-sizing: border-box; border: 1px solid rgb(225, 243, 216); margin: 0px 0px 0px 20px; padding: 0px 9px; align-items: center; border-radius: 4px; display: inline-flex; height: 24px; justify-content: center; vertical-align: middle; font-family: ui-sans-serif, system-ui, sans-serif, &amp;quot;Apple Color Emoji&amp;quot;, &amp;quot;Segoe UI Emoji&amp;quot;, &amp;quot;Segoe UI Symbol&amp;quot;, &amp;quot;Noto Color Emoji&amp;quot;; text-align: left; --el-tag-font-size: 12px; --el-tag-border-radius: 4px; --el-tag-border-radius-rounded: 9999px; line-height: 1; --el-icon-size: 14px; --el-tag-bg-color: light-dark(rgb(239.8,248.9,235.3), #141c10); --el-tag-border-color: light-dark(rgb(224.6,242.8,215.6), #16260f); --el-tag-hover-color: light-dark(#67c23a, #297803); --el-tag-text-color: light-dark(#67c23a, #297803);&quot; class=&quot;el-tag el-tag--success el-tag--light&quot; data-v-6d79ae31=&quot;&quot;&gt;&lt;/span&gt;&lt;/font&gt;&lt;/span&gt;&lt;/span&gt;&lt;div&gt;&lt;br&gt;&lt;/div&gt;" style="text;html=1;align=center;verticalAlign=middle;resizable=0;points=[];autosize=1;strokeColor=none;fillColor=none;" vertex="1" parent="8VVyXH77qokNSkwGSQ5K-4">
          <mxGeometry x="930" y="350" width="700" height="50" as="geometry" />
        </mxCell>
        <mxCell id="8VVyXH77qokNSkwGSQ5K-19" value="策略" style="text;html=1;align=center;verticalAlign=middle;resizable=0;points=[];autosize=1;strokeColor=none;fillColor=none;" vertex="1" parent="8VVyXH77qokNSkwGSQ5K-4">
          <mxGeometry x="1085" y="210" width="50" height="30" as="geometry" />
        </mxCell>
        <mxCell id="8VVyXH77qokNSkwGSQ5K-20" value="paladin&lt;br&gt;策略规则(热更新)" style="ellipse;whiteSpace=wrap;html=1;" vertex="1" parent="8VVyXH77qokNSkwGSQ5K-4">
          <mxGeometry x="610" y="260" width="120" height="80" as="geometry" />
        </mxCell>
        <mxCell id="8VVyXH77qokNSkwGSQ5K-21" style="edgeStyle=orthogonalEdgeStyle;rounded=0;orthogonalLoop=1;jettySize=auto;html=1;entryX=0.5;entryY=0;entryDx=0;entryDy=0;" edge="1" parent="8VVyXH77qokNSkwGSQ5K-4" source="8VVyXH77qokNSkwGSQ5K-22" target="8VVyXH77qokNSkwGSQ5K-24">
          <mxGeometry relative="1" as="geometry" />
        </mxCell>
        <mxCell id="8VVyXH77qokNSkwGSQ5K-22" value="&lt;span style=&quot;font-family: ui-sans-serif, system-ui, sans-serif, &amp;quot;Apple Color Emoji&amp;quot;, &amp;quot;Segoe UI Emoji&amp;quot;, &amp;quot;Segoe UI Symbol&amp;quot;, &amp;quot;Noto Color Emoji&amp;quot;; text-align: left; text-wrap-mode: nowrap;&quot;&gt;&lt;font style=&quot;color: light-dark(rgb(0, 0, 0), rgb(255, 255, 255));&quot;&gt;video.pung.playurl&lt;/font&gt;&lt;/span&gt;" style="rounded=1;whiteSpace=wrap;html=1;" vertex="1" parent="8VVyXH77qokNSkwGSQ5K-4">
          <mxGeometry x="680" y="720" width="120" height="60" as="geometry" />
        </mxCell>
        <mxCell id="8VVyXH77qokNSkwGSQ5K-23" style="edgeStyle=orthogonalEdgeStyle;rounded=0;orthogonalLoop=1;jettySize=auto;html=1;exitX=0.5;exitY=1;exitDx=0;exitDy=0;entryX=0.5;entryY=0;entryDx=0;entryDy=0;" edge="1" parent="8VVyXH77qokNSkwGSQ5K-4" source="8VVyXH77qokNSkwGSQ5K-24" target="8VVyXH77qokNSkwGSQ5K-26">
          <mxGeometry relative="1" as="geometry" />
        </mxCell>
        <mxCell id="8VVyXH77qokNSkwGSQ5K-24" value="&lt;div style=&quot;font-family: Menlo, Monaco, &amp;quot;Courier New&amp;quot;, monospace; line-height: 18px; white-space: pre;&quot;&gt;&lt;div style=&quot;&quot;&gt;&lt;span&gt;&lt;font style=&quot;color: light-dark(rgb(0, 0, 0), rgb(255, 255, 255));&quot;&gt;video.live.schedule-stream&lt;/font&gt;&lt;/span&gt;&lt;/div&gt;&lt;/div&gt;" style="rounded=1;whiteSpace=wrap;html=1;" vertex="1" parent="8VVyXH77qokNSkwGSQ5K-4">
          <mxGeometry x="600" y="880" width="280" height="60" as="geometry" />
        </mxCell>
        <mxCell id="8VVyXH77qokNSkwGSQ5K-25" style="edgeStyle=orthogonalEdgeStyle;rounded=0;orthogonalLoop=1;jettySize=auto;html=1;entryX=0.5;entryY=0;entryDx=0;entryDy=0;" edge="1" parent="8VVyXH77qokNSkwGSQ5K-4" source="8VVyXH77qokNSkwGSQ5K-26" target="8VVyXH77qokNSkwGSQ5K-31">
          <mxGeometry relative="1" as="geometry" />
        </mxCell>
        <mxCell id="8VVyXH77qokNSkwGSQ5K-26" value="&lt;div style=&quot;font-family: Menlo, Monaco, &amp;quot;Courier New&amp;quot;, monospace; line-height: 18px; white-space: pre;&quot;&gt;&lt;span&gt;&lt;font style=&quot;color: light-dark(rgb(0, 0, 0), rgb(255, 255, 255));&quot;&gt;video.live-core.stream-room&lt;/font&gt;&lt;/span&gt;&lt;/div&gt;" style="rounded=1;whiteSpace=wrap;html=1;" vertex="1" parent="8VVyXH77qokNSkwGSQ5K-4">
          <mxGeometry x="635" y="1010" width="210" height="60" as="geometry" />
        </mxCell>
        <mxCell id="8VVyXH77qokNSkwGSQ5K-27" value="热门房间本地缓存" style="shape=process;whiteSpace=wrap;html=1;backgroundOutline=1;" vertex="1" parent="8VVyXH77qokNSkwGSQ5K-4">
          <mxGeometry x="245" y="240" width="130" height="30" as="geometry" />
        </mxCell>
        <mxCell id="8VVyXH77qokNSkwGSQ5K-28" value="热门房间本地缓存" style="shape=process;whiteSpace=wrap;html=1;backgroundOutline=1;" vertex="1" parent="8VVyXH77qokNSkwGSQ5K-4">
          <mxGeometry x="550" y="735" width="130" height="30" as="geometry" />
        </mxCell>
        <mxCell id="8VVyXH77qokNSkwGSQ5K-29" value="&lt;span style=&quot;font-family: ui-sans-serif, system-ui, sans-serif, &amp;quot;Apple Color Emoji&amp;quot;, &amp;quot;Segoe UI Emoji&amp;quot;, &amp;quot;Segoe UI Symbol&amp;quot;, &amp;quot;Noto Color Emoji&amp;quot;; font-size: 14px; text-align: left; text-wrap-mode: wrap;&quot;&gt;&lt;font style=&quot;color: light-dark(rgb(0, 0, 0), rgb(255, 255, 255));&quot;&gt;/video.live.streamng.v2.Stream/GetMultiStreamInfo&lt;/font&gt;&lt;/span&gt;" style="text;html=1;align=center;verticalAlign=middle;resizable=0;points=[];autosize=1;strokeColor=none;fillColor=none;" vertex="1" parent="8VVyXH77qokNSkwGSQ5K-4">
          <mxGeometry x="730" y="818" width="350" height="30" as="geometry" />
        </mxCell>
        <mxCell id="8VVyXH77qokNSkwGSQ5K-30" value="&lt;span style=&quot;font-family: ui-sans-serif, system-ui, sans-serif, &amp;quot;Apple Color Emoji&amp;quot;, &amp;quot;Segoe UI Emoji&amp;quot;, &amp;quot;Segoe UI Symbol&amp;quot;, &amp;quot;Noto Color Emoji&amp;quot;; font-size: 14px; text-align: left; text-wrap-mode: wrap;&quot;&gt;&lt;font style=&quot;color: light-dark(rgb(0, 0, 0), rgb(255, 255, 255));&quot;&gt;/video.live_core.stream_room.v1.StreamRoomServer/BatchGetStreamDataByRoomIdMultiSource&lt;/font&gt;&lt;/span&gt;" style="text;html=1;align=center;verticalAlign=middle;resizable=0;points=[];autosize=1;strokeColor=none;fillColor=none;" vertex="1" parent="8VVyXH77qokNSkwGSQ5K-4">
          <mxGeometry x="740" y="960" width="640" height="30" as="geometry" />
        </mxCell>
        <mxCell id="8VVyXH77qokNSkwGSQ5K-31" value="&lt;div style=&quot;font-family: Menlo, Monaco, &amp;quot;Courier New&amp;quot;, monospace; line-height: 18px; white-space: pre;&quot;&gt;&lt;span&gt;&lt;font style=&quot;color: light-dark(rgb(0, 0, 0), rgb(255, 255, 255));&quot;&gt;video.live-core.stream-core&lt;/font&gt;&lt;/span&gt;&lt;/div&gt;" style="rounded=1;whiteSpace=wrap;html=1;" vertex="1" parent="8VVyXH77qokNSkwGSQ5K-4">
          <mxGeometry x="605" y="1170" width="270" height="60" as="geometry" />
        </mxCell>
        <mxCell id="8VVyXH77qokNSkwGSQ5K-32" value="&lt;span&gt;&lt;span&gt;&lt;font style=&quot;color: light-dark(rgb(255, 255, 255), rgb(255, 255, 255));&quot;&gt;&lt;span style=&quot;box-sizing: border-box; border: 0px solid; margin: 0px 0px 0px 5px; padding: 0px; font-family: ui-sans-serif, system-ui, sans-serif, &amp;quot;Apple Color Emoji&amp;quot;, &amp;quot;Segoe UI Emoji&amp;quot;, &amp;quot;Segoe UI Symbol&amp;quot;, &amp;quot;Noto Color Emoji&amp;quot;; font-size: 14px; text-align: left; text-wrap-mode: wrap;&quot; data-v-6d79ae31=&quot;&quot;&gt;/video.live_core.stream_core.v1.streamCoreServer/GetStreamAvCoversMutilSource&lt;/span&gt;&lt;span style=&quot;box-sizing: border-box; border: 1px solid rgb(225, 243, 216); margin: 0px 0px 0px 20px; padding: 0px 9px; align-items: center; border-radius: 4px; display: inline-flex; height: 24px; justify-content: center; vertical-align: middle; font-family: ui-sans-serif, system-ui, sans-serif, &amp;quot;Apple Color Emoji&amp;quot;, &amp;quot;Segoe UI Emoji&amp;quot;, &amp;quot;Segoe UI Symbol&amp;quot;, &amp;quot;Noto Color Emoji&amp;quot;; text-align: left; --el-tag-font-size: 12px; --el-tag-border-radius: 4px; --el-tag-border-radius-rounded: 9999px; line-height: 1; --el-icon-size: 14px; --el-tag-bg-color: rgb(239.8,248.9,235.3); --el-tag-border-color: rgb(224.6,242.8,215.6); --el-tag-hover-color: #67c23a; --el-tag-text-color: #67c23a;&quot; class=&quot;el-tag el-tag--success el-tag--light&quot; data-v-6d79ae31=&quot;&quot;&gt;&lt;/span&gt;&lt;/font&gt;&lt;/span&gt;&lt;/span&gt;&lt;div&gt;&lt;br&gt;&lt;/div&gt;" style="text;html=1;align=center;verticalAlign=middle;resizable=0;points=[];autosize=1;strokeColor=none;fillColor=none;" vertex="1" parent="8VVyXH77qokNSkwGSQ5K-4">
          <mxGeometry x="160" y="1110" width="600" height="50" as="geometry" />
        </mxCell>
        <mxCell id="8VVyXH77qokNSkwGSQ5K-33" value="&lt;font style=&quot;color: rgb(0, 0, 0);&quot;&gt;&lt;span style=&quot;box-sizing: border-box; border: 0px solid; margin: 0px 0px 0px 5px; padding: 0px; font-family: ui-sans-serif, system-ui, sans-serif, &amp;quot;Apple Color Emoji&amp;quot;, &amp;quot;Segoe UI Emoji&amp;quot;, &amp;quot;Segoe UI Symbol&amp;quot;, &amp;quot;Noto Color Emoji&amp;quot;; font-size: 14px; text-align: left; text-wrap-mode: wrap;&quot; data-v-6d79ae31=&quot;&quot;&gt;/video.live_core.stream_core.v1.streamCoreServer/StreamBatchGetMutilSource&lt;/span&gt;&lt;span style=&quot;box-sizing: border-box; border: 1px solid rgb(225, 243, 216); margin: 0px 0px 0px 20px; padding: 0px 9px; align-items: center; border-radius: 4px; display: inline-flex; height: 24px; justify-content: center; vertical-align: middle; font-family: ui-sans-serif, system-ui, sans-serif, &amp;quot;Apple Color Emoji&amp;quot;, &amp;quot;Segoe UI Emoji&amp;quot;, &amp;quot;Segoe UI Symbol&amp;quot;, &amp;quot;Noto Color Emoji&amp;quot;; text-align: left; --el-tag-font-size: 12px; --el-tag-border-radius: 4px; --el-tag-border-radius-rounded: 9999px; line-height: 1; --el-icon-size: 14px; --el-tag-bg-color: light-dark(rgb(239.8,248.9,235.3), #141c10); --el-tag-border-color: light-dark(rgb(224.6,242.8,215.6), #16260f); --el-tag-hover-color: light-dark(#67c23a, #297803); --el-tag-text-color: light-dark(#67c23a, #297803);&quot; class=&quot;el-tag el-tag--success el-tag--light&quot; data-v-6d79ae31=&quot;&quot;&gt;&lt;/span&gt;&lt;/font&gt;&lt;div&gt;&lt;br&gt;&lt;/div&gt;" style="text;html=1;align=center;verticalAlign=middle;resizable=0;points=[];autosize=1;strokeColor=none;fillColor=none;" vertex="1" parent="8VVyXH77qokNSkwGSQ5K-4">
          <mxGeometry x="710" y="1110" width="580" height="50" as="geometry" />
        </mxCell>
        <mxCell id="8VVyXH77qokNSkwGSQ5K-34" style="edgeStyle=orthogonalEdgeStyle;rounded=0;orthogonalLoop=1;jettySize=auto;html=1;entryX=0.5;entryY=0;entryDx=0;entryDy=0;" edge="1" parent="8VVyXH77qokNSkwGSQ5K-4" source="8VVyXH77qokNSkwGSQ5K-36" target="8VVyXH77qokNSkwGSQ5K-37">
          <mxGeometry relative="1" as="geometry" />
        </mxCell>
        <mxCell id="8VVyXH77qokNSkwGSQ5K-35" style="edgeStyle=orthogonalEdgeStyle;rounded=0;orthogonalLoop=1;jettySize=auto;html=1;" edge="1" parent="8VVyXH77qokNSkwGSQ5K-4" source="8VVyXH77qokNSkwGSQ5K-36" target="8VVyXH77qokNSkwGSQ5K-38">
          <mxGeometry relative="1" as="geometry" />
        </mxCell>
        <mxCell id="8VVyXH77qokNSkwGSQ5K-36" value="&lt;div style=&quot;font-family: Menlo, Monaco, &amp;quot;Courier New&amp;quot;, monospace; line-height: 18px; white-space: pre;&quot;&gt;&lt;span&gt;&lt;font style=&quot;color: light-dark(rgb(0, 0, 0), rgb(255, 255, 255));&quot;&gt;infra.mg.playurl-v3&lt;/font&gt;&lt;/span&gt;&lt;/div&gt;" style="rounded=1;whiteSpace=wrap;html=1;" vertex="1" parent="8VVyXH77qokNSkwGSQ5K-4">
          <mxGeometry x="1490" y="710" width="200" height="60" as="geometry" />
        </mxCell>
        <mxCell id="8VVyXH77qokNSkwGSQ5K-37" value="&lt;div style=&quot;font-family: Menlo, Monaco, &amp;quot;Courier New&amp;quot;, monospace; line-height: 18px; white-space: pre;&quot;&gt;&lt;div style=&quot;line-height: 18px;&quot;&gt;&lt;span&gt;&lt;font style=&quot;color: light-dark(rgb(0, 0, 0), rgb(255, 255, 255));&quot;&gt;multimedia.lv.lawrencium&lt;/font&gt;&lt;/span&gt;&lt;/div&gt;&lt;/div&gt;" style="rounded=1;whiteSpace=wrap;html=1;" vertex="1" parent="8VVyXH77qokNSkwGSQ5K-4">
          <mxGeometry x="1290" y="870" width="200" height="60" as="geometry" />
        </mxCell>
        <mxCell id="8VVyXH77qokNSkwGSQ5K-38" value="&lt;div style=&quot;font-family: Menlo, Monaco, &amp;quot;Courier New&amp;quot;, monospace; line-height: 18px; white-space: pre;&quot;&gt;&lt;span style=&quot;font-family: ui-sans-serif, system-ui, sans-serif, &amp;quot;Apple Color Emoji&amp;quot;, &amp;quot;Segoe UI Emoji&amp;quot;, &amp;quot;Segoe UI Symbol&amp;quot;, &amp;quot;Noto Color Emoji&amp;quot;; text-align: left; white-space-collapse: collapse;&quot;&gt;&lt;font style=&quot;color: light-dark(rgb(0, 0, 0), rgb(255, 255, 255));&quot;&gt;video.live-cdn.bvccdn-ban-streamcenter&lt;/font&gt;&lt;/span&gt;&lt;/div&gt;" style="rounded=1;whiteSpace=wrap;html=1;" vertex="1" parent="8VVyXH77qokNSkwGSQ5K-4">
          <mxGeometry x="1630" y="870" width="250" height="60" as="geometry" />
        </mxCell>
        <mxCell id="8VVyXH77qokNSkwGSQ5K-39" style="edgeStyle=orthogonalEdgeStyle;rounded=0;orthogonalLoop=1;jettySize=auto;html=1;entryX=-0.02;entryY=0.617;entryDx=0;entryDy=0;entryPerimeter=0;" edge="1" parent="8VVyXH77qokNSkwGSQ5K-4" source="8VVyXH77qokNSkwGSQ5K-22" target="8VVyXH77qokNSkwGSQ5K-36">
          <mxGeometry relative="1" as="geometry" />
        </mxCell>
        <UserObject label="&lt;span style=&quot;font-family: ui-sans-serif, system-ui, sans-serif, &amp;quot;Apple Color Emoji&amp;quot;, &amp;quot;Segoe UI Emoji&amp;quot;, &amp;quot;Segoe UI Symbol&amp;quot;, &amp;quot;Noto Color Emoji&amp;quot;; font-size: 14px; font-style: normal; font-variant-ligatures: normal; font-variant-caps: normal; font-weight: 400; letter-spacing: normal; orphans: 2; text-align: left; text-indent: 0px; text-transform: none; widows: 2; word-spacing: 0px; -webkit-text-stroke-width: 0px; white-space: normal; text-decoration-thickness: initial; text-decoration-style: initial; text-decoration-color: initial; float: none; display: inline !important;&quot;&gt;&lt;font style=&quot;color: light-dark(rgb(0, 0, 0), rgb(255, 255, 255));&quot;&gt;/multimedia.lv.lawrencium.v1.LawrenciumService/GetIdcIdsByMultiSidInfo&lt;/font&gt;&lt;/span&gt;" link="&lt;span style=&quot;color: rgb(96, 98, 102); font-family: ui-sans-serif, system-ui, sans-serif, &amp;quot;Apple Color Emoji&amp;quot;, &amp;quot;Segoe UI Emoji&amp;quot;, &amp;quot;Segoe UI Symbol&amp;quot;, &amp;quot;Noto Color Emoji&amp;quot;; font-size: 14px; font-style: normal; font-variant-ligatures: normal; font-variant-caps: normal; font-weight: 400; letter-spacing: normal; orphans: 2; text-align: left; text-indent: 0px; text-transform: none; widows: 2; word-spacing: 0px; -webkit-text-stroke-width: 0px; white-space: normal; background-color: rgb(240, 246, 253); text-decoration-thickness: initial; text-decoration-style: initial; text-decoration-color: initial; display: inline !important; float: none;&quot;&gt;/multimedia.lv.lawrencium.v1.LawrenciumService/GetIdcIdsByMultiSidInfo&lt;/span&gt;" id="8VVyXH77qokNSkwGSQ5K-40">
          <mxCell style="text;whiteSpace=wrap;html=1;" vertex="1" parent="8VVyXH77qokNSkwGSQ5K-4">
            <mxGeometry x="1100" y="780" width="500" height="40" as="geometry" />
          </mxCell>
        </UserObject>
        <mxCell id="8VVyXH77qokNSkwGSQ5K-41" value="&lt;span&gt;&lt;span&gt;&lt;span&gt;&lt;span&gt;&lt;font style=&quot;color: rgb(0, 0, 0);&quot;&gt;&lt;span style=&quot;box-sizing: border-box; border: 0px solid; margin: 0px 0px 0px 5px; padding: 0px; font-family: ui-sans-serif, system-ui, sans-serif, &amp;quot;Apple Color Emoji&amp;quot;, &amp;quot;Segoe UI Emoji&amp;quot;, &amp;quot;Segoe UI Symbol&amp;quot;, &amp;quot;Noto Color Emoji&amp;quot;; font-size: 14px; text-align: left; text-wrap-mode: wrap;&quot; data-v-6d79ae31=&quot;&quot;&gt;/streamCenter.service.v1.StreamCenter/GetStreams&lt;/span&gt;&lt;span style=&quot;box-sizing: border-box; border: 1px solid rgb(225, 243, 216); margin: 0px 0px 0px 20px; padding: 0px 9px; align-items: center; border-radius: 4px; display: inline-flex; height: 24px; justify-content: center; vertical-align: middle; font-family: ui-sans-serif, system-ui, sans-serif, &amp;quot;Apple Color Emoji&amp;quot;, &amp;quot;Segoe UI Emoji&amp;quot;, &amp;quot;Segoe UI Symbol&amp;quot;, &amp;quot;Noto Color Emoji&amp;quot;; text-align: left; --el-tag-font-size: 12px; --el-tag-border-radius: 4px; --el-tag-border-radius-rounded: 9999px; line-height: 1; --el-icon-size: 14px; --el-tag-bg-color: light-dark(rgb(239.8,248.9,235.3), #141c10); --el-tag-border-color: light-dark(rgb(224.6,242.8,215.6), #16260f); --el-tag-hover-color: light-dark(#67c23a, #297803); --el-tag-text-color: light-dark(#67c23a, #297803);&quot; class=&quot;el-tag el-tag--success el-tag--light&quot; data-v-6d79ae31=&quot;&quot;&gt;&lt;/span&gt;&lt;/font&gt;&lt;/span&gt;&lt;/span&gt;&lt;/span&gt;&lt;/span&gt;&lt;div&gt;&lt;br&gt;&lt;/div&gt;" style="text;html=1;align=center;verticalAlign=middle;resizable=0;points=[];autosize=1;strokeColor=none;fillColor=none;" vertex="1" parent="8VVyXH77qokNSkwGSQ5K-4">
          <mxGeometry x="1570" y="790" width="400" height="50" as="geometry" />
        </mxCell>
        <UserObject label="&lt;span style=&quot;font-family: ui-sans-serif, system-ui, sans-serif, &amp;quot;Apple Color Emoji&amp;quot;, &amp;quot;Segoe UI Emoji&amp;quot;, &amp;quot;Segoe UI Symbol&amp;quot;, &amp;quot;Noto Color Emoji&amp;quot;; font-size: 14px; font-style: normal; font-variant-ligatures: normal; font-variant-caps: normal; font-weight: 400; letter-spacing: normal; orphans: 2; text-align: left; text-indent: 0px; text-transform: none; widows: 2; word-spacing: 0px; -webkit-text-stroke-width: 0px; white-space: normal; text-decoration-thickness: initial; text-decoration-style: initial; text-decoration-color: initial; float: none; display: inline !important;&quot;&gt;&lt;font style=&quot;color: light-dark(rgb(0, 0, 0), rgb(255, 255, 255));&quot;&gt;/infra.mg.playurl_v3.v1.LiveResSched/GetBatchPlayurl&lt;/font&gt;&lt;/span&gt;" link="&lt;span style=&quot;color: rgb(96, 98, 102); font-family: ui-sans-serif, system-ui, sans-serif, &amp;quot;Apple Color Emoji&amp;quot;, &amp;quot;Segoe UI Emoji&amp;quot;, &amp;quot;Segoe UI Symbol&amp;quot;, &amp;quot;Noto Color Emoji&amp;quot;; font-size: 14px; font-style: normal; font-variant-ligatures: normal; font-variant-caps: normal; font-weight: 400; letter-spacing: normal; orphans: 2; text-align: left; text-indent: 0px; text-transform: none; widows: 2; word-spacing: 0px; -webkit-text-stroke-width: 0px; white-space: normal; background-color: rgb(245, 247, 250); text-decoration-thickness: initial; text-decoration-style: initial; text-decoration-color: initial; display: inline !important; float: none;&quot;&gt;/infra.mg.playurl_v3.v1.LiveResSched/GetBatchPlayurl&lt;/span&gt;" id="8VVyXH77qokNSkwGSQ5K-42">
          <mxCell style="text;whiteSpace=wrap;html=1;" vertex="1" parent="8VVyXH77qokNSkwGSQ5K-4">
            <mxGeometry x="940" y="725" width="380" height="40" as="geometry" />
          </mxCell>
        </UserObject>
        <mxCell id="8VVyXH77qokNSkwGSQ5K-43" value="pu" style="text;html=1;align=center;verticalAlign=middle;resizable=0;points=[];autosize=1;strokeColor=none;fillColor=none;" vertex="1" parent="8VVyXH77qokNSkwGSQ5K-4">
          <mxGeometry x="580" y="668" width="40" height="30" as="geometry" />
        </mxCell>
        <mxCell id="8VVyXH77qokNSkwGSQ5K-44" value="CDN调度" style="text;html=1;align=center;verticalAlign=middle;resizable=0;points=[];autosize=1;strokeColor=none;fillColor=none;" vertex="1" parent="8VVyXH77qokNSkwGSQ5K-4">
          <mxGeometry x="1590" y="638" width="70" height="30" as="geometry" />
        </mxCell>
        <mxCell id="8VVyXH77qokNSkwGSQ5K-45" value="&lt;span style=&quot;font-family: ui-sans-serif, system-ui, sans-serif, &amp;quot;Apple Color Emoji&amp;quot;, &amp;quot;Segoe UI Emoji&amp;quot;, &amp;quot;Segoe UI Symbol&amp;quot;, &amp;quot;Noto Color Emoji&amp;quot;; font-size: 14px; text-align: left; text-wrap-mode: wrap;&quot;&gt;&lt;font style=&quot;color: light-dark(rgb(0, 0, 0), rgb(255, 255, 255));&quot;&gt;/live.playurl.strategy.v1.PlayUrlStrategy/BatchPlayUrlStrategy&lt;/font&gt;&lt;/span&gt;" style="text;html=1;align=center;verticalAlign=middle;resizable=0;points=[];autosize=1;strokeColor=none;fillColor=none;" vertex="1" parent="8VVyXH77qokNSkwGSQ5K-4">
          <mxGeometry x="515" y="130" width="410" height="30" as="geometry" />
        </mxCell>
        <mxCell id="8VVyXH77qokNSkwGSQ5K-46" value="&lt;span style=&quot;font-family: ui-sans-serif, system-ui, sans-serif, &amp;quot;Apple Color Emoji&amp;quot;, &amp;quot;Segoe UI Emoji&amp;quot;, &amp;quot;Segoe UI Symbol&amp;quot;, &amp;quot;Noto Color Emoji&amp;quot;; font-size: 14px; text-align: left; text-wrap-mode: wrap;&quot;&gt;&lt;font style=&quot;color: light-dark(rgb(255, 255, 255), rgb(255, 255, 255));&quot;&gt;/video.pung.playurl.v1.Playurl/BatchPlayurl&lt;/font&gt;&lt;/span&gt;" style="text;html=1;align=center;verticalAlign=middle;resizable=0;points=[];autosize=1;strokeColor=none;fillColor=none;" vertex="1" parent="8VVyXH77qokNSkwGSQ5K-4">
          <mxGeometry x="730" y="645" width="300" height="30" as="geometry" />
        </mxCell>
        <mxCell id="8VVyXH77qokNSkwGSQ5K-47" value="" style="endArrow=classic;html=1;rounded=0;entryX=0;entryY=0.5;entryDx=0;entryDy=0;" edge="1" parent="8VVyXH77qokNSkwGSQ5K-4" target="8VVyXH77qokNSkwGSQ5K-10">
          <mxGeometry width="50" height="50" relative="1" as="geometry">
            <mxPoint y="300" as="sourcePoint" />
            <mxPoint x="70" y="275" as="targetPoint" />
          </mxGeometry>
        </mxCell>
        <UserObject label="&lt;span style=&quot;font-family: ui-sans-serif, system-ui, sans-serif, &amp;quot;Apple Color Emoji&amp;quot;, &amp;quot;Segoe UI Emoji&amp;quot;, &amp;quot;Segoe UI Symbol&amp;quot;, &amp;quot;Noto Color Emoji&amp;quot;; font-size: 14px; font-style: normal; font-variant-ligatures: normal; font-variant-caps: normal; font-weight: 400; letter-spacing: normal; orphans: 2; text-align: left; text-indent: 0px; text-transform: none; widows: 2; word-spacing: 0px; -webkit-text-stroke-width: 0px; white-space: normal; text-decoration-thickness: initial; text-decoration-style: initial; text-decoration-color: initial; float: none; display: inline !important;&quot;&gt;&lt;font style=&quot;color: light-dark(rgb(0, 0, 0), rgb(255, 255, 255));&quot;&gt;/live.xroom.v1.Room/GetMultiple&lt;/font&gt;&lt;/span&gt;" link="&lt;span style=&quot;color: rgb(96, 98, 102); font-family: ui-sans-serif, system-ui, sans-serif, &amp;quot;Apple Color Emoji&amp;quot;, &amp;quot;Segoe UI Emoji&amp;quot;, &amp;quot;Segoe UI Symbol&amp;quot;, &amp;quot;Noto Color Emoji&amp;quot;; font-size: 14px; font-style: normal; font-variant-ligatures: normal; font-variant-caps: normal; font-weight: 400; letter-spacing: normal; orphans: 2; text-align: left; text-indent: 0px; text-transform: none; widows: 2; word-spacing: 0px; -webkit-text-stroke-width: 0px; white-space: normal; background-color: rgb(236, 245, 255); text-decoration-thickness: initial; text-decoration-style: initial; text-decoration-color: initial; display: inline !important; float: none;&quot;&gt;/live.xroom.v1.Room/GetMultiple&lt;/span&gt;" id="8VVyXH77qokNSkwGSQ5K-48">
          <mxCell style="text;whiteSpace=wrap;html=1;" vertex="1" parent="8VVyXH77qokNSkwGSQ5K-4">
            <mxGeometry x="15" y="260" width="230" height="40" as="geometry" />
          </mxCell>
        </UserObject>
        <mxCell id="8VVyXH77qokNSkwGSQ5K-49" value="全量在播房间缓存" style="shape=process;whiteSpace=wrap;html=1;backgroundOutline=1;" vertex="1" parent="8VVyXH77qokNSkwGSQ5K-4">
          <mxGeometry x="245" y="330" width="130" height="30" as="geometry" />
        </mxCell>
        <mxCell id="8VVyXH77qokNSkwGSQ5K-50" style="edgeStyle=orthogonalEdgeStyle;rounded=0;orthogonalLoop=1;jettySize=auto;html=1;entryX=0;entryY=0.5;entryDx=0;entryDy=0;" edge="1" parent="8VVyXH77qokNSkwGSQ5K-1" source="8VVyXH77qokNSkwGSQ5K-10" target="8VVyXH77qokNSkwGSQ5K-2">
          <mxGeometry relative="1" as="geometry">
            <Array as="points">
              <mxPoint x="440" y="330" />
              <mxPoint x="440" y="30" />
            </Array>
          </mxGeometry>
        </mxCell>
      </root>
    </mxGraphModel>
  </diagram>
</mxfile>
